<svg id="Слой_1" data-name="Слой 1" xmlns="http://www.w3.org/2000/svg" viewBox="0 0 64 64"><defs><style>.cls-1{fill:#d61e1d;}.cls-2{fill:#991310;}.cls-3{fill:#fff;}</style></defs><title>pdf-icon</title><path class="cls-1" d="M51.63,64H12.37a4.61,4.61,0,0,1-4.61-4.62V4.64A4.61,4.61,0,0,1,12.37,0H33.14l23.1,23.4v36A4.61,4.61,0,0,1,51.63,64Z"/><polygon class="cls-2" points="56.24 23.42 32.84 23.42 32.84 0.02 56.24 23.42"/><path class="cls-3" d="M17.66,53.1v3.54h-2V46.57h3.44a3.14,3.14,0,0,1,2.38.93,3.33,3.33,0,0,1,.89,2.4,3.1,3.1,0,0,1-.88,2.34A3.34,3.34,0,0,1,19,53.1Zm0-1.7h1.4A1.11,1.11,0,0,0,20,51a1.68,1.68,0,0,0,.31-1.1,1.94,1.94,0,0,0-.32-1.2,1.06,1.06,0,0,0-.87-.46H17.66Z"/><path class="cls-3" d="M23,56.64V46.57h2.66a3.63,3.63,0,0,1,2.81,1.12,4.37,4.37,0,0,1,1.07,3.07v1.63a4.44,4.44,0,0,1-1,3.12,3.74,3.74,0,0,1-2.89,1.13Zm2-8.38V55h.61a1.68,1.68,0,0,0,1.43-.53,3.15,3.15,0,0,0,.44-1.85V50.82a3.51,3.51,0,0,0-.4-2,1.6,1.6,0,0,0-1.34-.59Z"/><path class="cls-3" d="M35.47,52.53H32.31v4.11h-2V46.57h5.58v1.69H32.31v2.58h3.16Z"/></svg>